<?xml version="1.0" standalone="no"?>
<!DOCTYPE svg PUBLIC "-//W3C//DTD SVG 20010904//EN"
 "http://www.w3.org/TR/2001/REC-SVG-20010904/DTD/svg10.dtd">
<svg version="1.0" xmlns="http://www.w3.org/2000/svg"
 width="700.000000pt" height="700.000000pt" viewBox="0 0 700.000000 700.000000"
 preserveAspectRatio="xMidYMid meet">
<metadata>
Created by potrace 1.11, written by Peter Selinger 2001-2013
</metadata>
<g transform="translate(0.000000,700.000000) scale(0.100000,-0.100000)"
fill="#000000" stroke="none">
<path d="M1925 6449 c-962 -180 -1769 -336 -1792 -345 -51 -19 -105 -78 -121
-133 -17 -55 -17 -4887 0 -4942 15 -53 69 -113 117 -132 47 -19 3549 -677
3600 -677 87 1 181 81 200 172 7 32 11 313 11 813 l0 764 363 3 364 3 41 28
c122 80 137 246 31 342 -22 20 -52 41 -67 48 -18 8 -138 13 -379 15 l-353 3 0
215 0 214 325 0 c192 0 344 4 374 11 64 14 133 72 157 134 40 106 -3 216 -105
268 l-55 27 -348 0 -348 0 0 220 0 219 363 3 364 3 41 28 c122 80 137 246 31
342 -22 20 -52 41 -67 48 -18 8 -138 13 -379 15 l-353 3 0 215 0 214 325 0
c192 0 344 4 374 11 64 14 133 72 157 134 40 106 -3 216 -105 268 l-55 27
-348 0 -348 0 0 765 c0 500 -4 781 -11 813 -20 96 -114 172 -209 171 -25 0
-832 -149 -1795 -330z m1034 -1672 c90 -60 126 -174 83 -268 -11 -24 -178
-246 -371 -494 -193 -247 -351 -452 -351 -455 0 -3 158 -185 351 -405 193
-220 360 -418 370 -440 37 -79 16 -187 -47 -247 -80 -75 -214 -77 -293 -5 -13
12 -165 183 -338 380 -172 196 -317 357 -321 357 -4 -1 -134 -165 -290 -366
-189 -244 -296 -373 -323 -391 -49 -32 -141 -43 -192 -22 -115 46 -172 178
-124 289 8 19 155 215 326 434 l311 400 -23 25 c-73 79 -588 673 -601 693 -9
14 -20 46 -25 73 -25 133 76 255 210 255 102 -1 111 -9 420 -363 156 -179 287
-326 290 -326 4 -1 145 178 315 396 356 459 366 470 419 495 59 27 150 21 204
-15z"/>
<path d="M5369 5002 c-159 -83 -156 -299 5 -385 39 -21 52 -22 311 -22 270 0
271 0 320 26 70 35 107 92 113 168 5 72 -10 121 -51 168 -61 69 -79 73 -378
73 l-267 0 -53 -28z"/>
<path d="M5429 4151 c-52 -11 -99 -41 -136 -89 -79 -104 -42 -256 78 -316 l53
-26 265 0 c299 0 317 4 378 73 41 47 56 96 51 167 -7 95 -71 167 -168 189 -50
12 -464 13 -521 2z"/>
<path d="M5369 3252 c-159 -83 -156 -299 5 -385 39 -21 52 -22 311 -22 270 0
271 0 320 26 70 35 107 92 113 168 5 72 -10 121 -51 168 -61 69 -79 73 -378
73 l-267 0 -53 -28z"/>
<path d="M5429 2401 c-52 -11 -99 -41 -136 -89 -79 -104 -42 -256 78 -316 l53
-26 265 0 c299 0 317 4 378 73 41 47 56 96 51 167 -7 95 -71 167 -168 189 -50
12 -464 13 -521 2z"/>
</g>
</svg>
